<svg xmlns="http://www.w3.org/2000/svg" viewBox="0 0 96.56 157.41"><path d="M17.44 146.56c.46-1.16 35-84.91 39.4-96.48 2.23 5 4.9 10 7.64 15.1 6.92 12.95 14.08 26.34 14.08 39.4 0 29-19.63 34-25.64 34.92a9 9 0 001.28 17.91 9.19 9.19 0 001.3-.09c18.94-2.75 41.06-18.2 41.06-52.74 0-17.58-8.61-33.67-16.21-47.88-6.45-12.07-12.34-23.16-10.79-31.34 1.11-5.92 5.32-9.28 11.83-9.7A2.55 2.55 0 0083.56 14l3.2-8.3a2.51 2.51 0 00-.95-3.36C84.42 1.23 80.24 0 76.7 0c-9.42 0-20.91 3.08-30.92 28C45.37 29 1.3 138.19.66 139.82a9.042 9.042 0 0016.78 6.74z" fill="#040000"/></svg>